HIERARCHY
ROOT hip
{
  OFFSET 0 0 0
  CHANNELS 6 Xposition Yposition Zposition Zrotation Yrotation Xrotation
  JOINT abdomen
  {
    OFFSET 0 20.6881 -0.73152
    CHANNELS 3 Zrotation Xrotation Yrotation
    JOINT chest
    {
      OFFSET 0 11.7043 -0.48768
      CHANNELS 3 Zrotation Xrotation Yrotation
      JOINT neck
      {
        OFFSET 0 22.1894 -2.19456
        CHANNELS 3 Zrotation Xrotation Yrotation
        JOINT head
        {
          OFFSET -0.24384 7.07133 1.2192
          CHANNELS 3 Zrotation Xrotation Yrotation
          JOINT leftEye
          {
            OFFSET 4.14528 8.04674 8.04672
            CHANNELS 3 Zrotation Xrotation Yrotation
            End Site
            {
              OFFSET 1 0 0
            }
          }
          JOINT rightEye
          {
            OFFSET -3.6576 8.04674 8.04672
            CHANNELS 3 Zrotation Xrotation Yrotation
            End Site
            {
              OFFSET 1 0 0
            }
          }
        }
      }
      JOINT rCollar
      {
        OFFSET -2.68224 19.2634 -4.8768
        CHANNELS 3 Zrotation Xrotation Yrotation
        JOINT rShldr
        {
          OFFSET -8.77824 -1.95073 1.46304
          CHANNELS 3 Zrotation Xrotation Yrotation
          JOINT rForeArm
          {
            OFFSET -28.1742 -1.7115 0.48768
            CHANNELS 3 Zrotation Xrotation Yrotation
            JOINT rHand
            {
              OFFSET -22.5879 0.773209 7.07136
              CHANNELS 3 Zrotation Xrotation Yrotation
              JOINT rThumb1
              {
                OFFSET -1.2192 -0.487915 3.41376
                CHANNELS 3 Zrotation Xrotation Yrotation
                JOINT rThumb2
                {
                  OFFSET -3.37035 -0.52449 3.41376
                  CHANNELS 3 Zrotation Xrotation Yrotation
                  End Site
                  {
                    OFFSET -1.78271 -1.18214 1.43049
                  }
                }
              }
              JOINT rIndex1
              {
                OFFSET -7.75947 0.938293 5.60832
                CHANNELS 3 Zrotation Xrotation Yrotation
                JOINT rIndex2
                {
                  OFFSET -2.54057 -0.884171 1.56538
                  CHANNELS 3 Zrotation Xrotation Yrotation
                  End Site
                  {
                    OFFSET -1.62519 -0.234802 1.16502
                  }
                }
              }
              JOINT rMid1
              {
                OFFSET -8.24714 1.18213 3.41376
                CHANNELS 3 Zrotation Xrotation Yrotation
                JOINT rMid2
                {
                  OFFSET -3.10165 -0.590103 1.0647
                  CHANNELS 3 Zrotation Xrotation Yrotation
                  End Site
                  {
                    OFFSET -2.48547 -0.328903 0.83742
                  }
                }
              }
              JOINT rRing1
              {
                OFFSET -8.82822 0.546677 1.51678
                CHANNELS 3 Zrotation Xrotation Yrotation
                JOINT rRing2
                {
                  OFFSET -2.60934 -0.819778 -0.0198488
                  CHANNELS 3 Zrotation Xrotation Yrotation
                  End Site
                  {
                    OFFSET -2.33842 -0.294052 0.168128
                  }
                }
              }
              JOINT rPinky1
              {
                OFFSET -8.27202 -0.0477905 -0.4584
                CHANNELS 3 Zrotation Xrotation Yrotation
                JOINT rPinky2
                {
                  OFFSET -1.82734 -0.647385 -0.700984
                  CHANNELS 3 Zrotation Xrotation Yrotation
                  End Site
                  {
                    OFFSET -1.69225 -0.51767 -0.607171
                  }
                }
              }
            }
          }
        }
      }
      JOINT lCollar
      {
        OFFSET 2.68224 19.2634 -4.8768
        CHANNELS 3 Zrotation Xrotation Yrotation
        JOINT lShldr
        {
          OFFSET 8.77824 -1.95073 1.46304
          CHANNELS 3 Zrotation Xrotation Yrotation
          JOINT lForeArm
          {
            OFFSET 28.1742 -1.7115 0.48768
            CHANNELS 3 Zrotation Xrotation Yrotation
            JOINT lHand
            {
              OFFSET 22.5879 0.773209 7.07136
              CHANNELS 3 Zrotation Xrotation Yrotation
              JOINT lThumb1
              {
                OFFSET 1.2192 -0.487915 3.41376
                CHANNELS 3 Zrotation Xrotation Yrotation
                JOINT lThumb2
                {
                  OFFSET 3.37035 -0.52449 3.41376
                  CHANNELS 3 Zrotation Xrotation Yrotation
                  End Site
                  {
                    OFFSET 1.78271 -1.18214 1.43049
                  }
                }
              }
              JOINT lIndex1
              {
                OFFSET 7.75947 0.938293 5.60832
                CHANNELS 3 Zrotation Xrotation Yrotation
                JOINT lIndex2
                {
                  OFFSET 2.54057 -0.884171 1.56538
                  CHANNELS 3 Zrotation Xrotation Yrotation
                  End Site
                  {
                    OFFSET 1.62519 -0.234802 1.16502
                  }
                }
              }
              JOINT lMid1
              {
                OFFSET 8.24714 1.18213 3.41376
                CHANNELS 3 Zrotation Xrotation Yrotation
                JOINT lMid2
                {
                  OFFSET 3.10165 -0.590103 1.0647
                  CHANNELS 3 Zrotation Xrotation Yrotation
                  End Site
                  {
                    OFFSET 2.48547 -0.328903 0.83742
                  }
                }
              }
              JOINT lRing1
              {
                OFFSET 8.82822 0.546677 1.51678
                CHANNELS 3 Zrotation Xrotation Yrotation
                JOINT lRing2
                {
                  OFFSET 2.60934 -0.819778 -0.0198488
                  CHANNELS 3 Zrotation Xrotation Yrotation
                  End Site
                  {
                    OFFSET 2.33842 -0.294052 0.168128
                  }
                }
              }
              JOINT lPinky1
              {
                OFFSET 8.27202 -0.0477905 -0.4584
                CHANNELS 3 Zrotation Xrotation Yrotation
                JOINT lPinky2
                {
                  OFFSET 1.82734 -0.647385 -0.700984
                  CHANNELS 3 Zrotation Xrotation Yrotation
                  End Site
                  {
                    OFFSET 1.69225 -0.51767 -0.607171
                  }
                }
              }
            }
          }
        }
      }
    }
  }
  JOINT rButtock
  {
    OFFSET -8.77824 4.35084 1.2192
    CHANNELS 3 Zrotation Xrotation Yrotation
    JOINT rThigh
    {
      OFFSET 0 -1.70687 -2.19456
      CHANNELS 3 Zrotation Xrotation Yrotation
      JOINT rShin
      {
        OFFSET 0 -36.8199 0.73152
        CHANNELS 3 Zrotation Xrotation Yrotation
        JOINT rFoot
        {
          OFFSET 0.73152 -45.1104 -5.12064
          CHANNELS 3 Zrotation Xrotation Yrotation
          End Site
          {
            OFFSET -1.1221 -3.69964 12.103
          }
        }
      }
    }
  }
  JOINT lButtock
  {
    OFFSET 8.77824 4.35084 1.2192
    CHANNELS 3 Zrotation Xrotation Yrotation
    JOINT lThigh
    {
      OFFSET 0 -1.70687 -2.19456
      CHANNELS 3 Zrotation Xrotation Yrotation
      JOINT lShin
      {
        OFFSET 0 -36.8199 0.73152
        CHANNELS 3 Zrotation Xrotation Yrotation
        JOINT lFoot
        {
          OFFSET -0.73152 -45.1104 -5.12064
          CHANNELS 3 Zrotation Xrotation Yrotation
          End Site
          {
            OFFSET 1.1221 -3.69964 12.103
          }
        }
      }
    }
  }
}
MOTION
Frames:	7
Frame Time:	0.00833333
0.0 0.0 0.0 0.0 0.0 0.0 0.0 0.0 0.0 0.0 0.0 0.0 0.0 0.0 0.0 0.0 0.0 0.0 0.0 0.0 0.0 0.0 0.0 0.0 0.0 0.0 0.0 0.0 0.0 0.0 0.0 0.0 0.0 0.0 0.0 0.0 0.0 0.0 0.0 0.0 0.0 0.0 0.0 0.0 0.0 0.0 0.0 0.0 0.0 0.0 0.0 0.0 0.0 0.0 0.0 0.0 0.0 0.0 0.0 0.0 0.0 0.0 0.0 0.0 0.0 0.0 0.0 0.0 0.0 0.0 0.0 0.0 0.0 0.0 0.0 0.0 0.0 0.0 0.0 0.0 0.0 0.0 0.0 0.0 0.0 0.0 0.0 0.0 0.0 0.0 0.0 0.0 0.0 0.0 0.0 0.0 0.0 0.0 0.0 0.0 0.0 0.0 0.0 0.0 0.0 0.0 0.0 0.0 0.0 0.0 0.0 0.0 0.0 0.0 0.0 0.0 0.0 0.0 0.0 0.0 0.0 0.0 0.0 0.0 0.0 0.0 0.0 0.0 0.0 0.0 0.0 0.0
9.999999999999999e-05 62.185199999999995 0.059199999999999996 -2.554051 -88.625533 1.76537 -0.172593 3.364448 2.817029 9.5575 2.780781 -60.234571 -7.216857 -4.005357 -125.397321 27.647512 -26.685572 37.030748 53.626223 -3.289205 -6.502617 18.053055 -14.883977 -78.857809 -53.052553 -87.287714 -151.663133 -159.182133 27.550409 168.327356 -3.562003 74.216954 172.067137 -175.356828 51.816514 77.128 6.604053 -15.747749 43.443922 170.679653 10.100471 -89.737981 159.176746 32.358805 -123.377449 -17.50749 35.949208 -82.590854 -47.972836 -1.700677 -113.742946 138.222028 -55.489076 116.892388 92.42775 15.845425 -81.811995 5.281004 -30.757541 -9.379352 30.367012 11.403578 -66.587448 -11.088425 -31.06911 -13.133979 82.695305 -43.19793 -168.574963 169.960024 -40.552758 -171.082634 0.961909 51.521873 -168.922567 -175.624397 22.96018 -110.835045 -13.431301 -25.912338 -13.818745 -163.820976 -63.247589 -103.566981 151.514097 7.029365 -87.692551 82.504087 43.465088 -69.91934 -9.979511 -18.99395 -33.023966 94.577824 77.079228 -60.279414 -94.493275 -11.972359 79.333601 157.619776 -51.836248 -173.267209 46.960819 41.424144 99.055098 156.736199 44.89455 148.393474 17.626258 -47.789202 20.597804 -3.469693 51.815022 -5.012874 -0.91806 -7.410794 -2.48169 68.975174 -22.214904 -99.487239 -2.385045 -50.191681 -2.023921 2.679954 51.91977 -1.847148 5.504382 -1.970842 69.566158 -3.771439 -68.246411 171.983815
0.5547 63.419000000000004 0.6454 -8.791415 51.945346 -6.57239 3.512182 16.030504 3.890288 -0.48719 -9.564003 3.771406 -8.236946 27.784344 -88.788416 45.097334 12.551675 92.380313 -2.77013 -0.556906 22.730257 9.893683 0.756681 8.725534 -78.1642 70.557183 83.758498 53.354945 -11.893915 58.602976 -0.791542 -25.875639 90.790502 -6.73997 -10.607578 -12.079467 -170.947036 -23.730291 90.826592 -161.670475 -19.796763 85.141712 -147.862662 -15.971498 128.914287 -22.122935 56.868977 12.723786 -2.88781 3.586535 4.893903 -165.516959 -22.435279 150.924148 -136.448475 40.95356 154.415484 60.563142 -61.380529 41.612492 -8.767048 64.936685 32.206564 0.296456 -51.211864 -25.79139 -2.647035 -11.849793 -1.014241 -58.87888 16.692165 -17.439489 -177.210446 6.854776 -72.216009 -173.270285 -9.844723 -140.926504 136.113754 25.364006 -85.264027 9.536653 -33.131889 2.514875 -4.735181 22.439034 -0.951042 8.776253 -9.42522 11.1332 130.334024 51.737579 -132.883458 132.955015 -84.127465 155.195676 3.88442 22.736562 -0.824599 -18.289282 9.369913 0.617596 134.684651 34.992168 148.264074 -35.114731 13.428219 -2.573231 -177.419279 74.009354 -1.415388 142.38311 48.699835 133.802179 65.745598 -16.019057 95.719217 77.187289 -10.530906 169.506968 3.194308 6.212936 -4.706405 62.941917 -43.83681 -110.685616 -55.529629 -63.595752 -140.344593 -7.808556 22.342075 -94.372627
1.2945 63.9131 0.3195 -11.320856 58.329059 -10.871885 3.939173 14.025269 -0.833962 3.393983 -7.405819 10.018747 -6.439917 31.108818 -130.778416 26.085371 37.212229 139.059885 -11.089047 -1.888313 19.270448 29.796412 0.164306 0.61758 -3.35659 -0.35588 -2.314118 -96.806058 -20.106982 -154.017025 5.460345 -5.299812 -129.349256 -177.278619 8.307185 141.90888 -177.392947 -9.640455 96.65631 -172.795865 -16.063884 95.764957 -141.076988 -4.433759 124.725907 -6.313112 38.584118 5.046441 -165.973512 1.607116 145.382638 -3.485915 0.723033 3.76663 -17.891425 -60.059555 -17.411184 -147.146755 -57.535606 -157.636328 -178.369375 66.780413 -134.371684 -143.44752 -25.166167 -118.351417 144.865894 26.594453 -151.489273 -143.031216 7.161835 -162.989927 -160.821386 -17.809987 -62.407042 -173.268532 1.628779 -143.372164 173.776923 -4.283513 -96.88735 131.029156 14.680176 -80.514657 4.710409 0.093888 0.838446 35.344446 40.483525 -12.153872 164.787663 -28.719322 -156.506719 169.701529 29.539041 -149.62286 14.107726 -16.866414 21.730398 -16.244245 -44.413821 0.509481 147.513529 28.255684 152.495763 14.576826 -44.347077 14.267321 -161.143249 73.099491 -19.878542 146.008358 61.242828 -155.358749 -14.270123 -58.239947 -50.465138 102.279314 31.043675 167.143019 4.095845 -0.018366 -1.793232 50.243522 -41.559063 -51.864598 -69.889068 0.064219 -162.638876 48.462377 88.672378 -139.496634
2.2036 62.4694 0.6917000000000001 -17.577238 62.812876 -17.083896 7.389467 17.827193 -2.976125 2.694711 -10.635627 11.590573 5.633365 15.615053 25.165195 -13.420649 -23.68708 -7.587476 4.77229 -0.72494 -17.265488 11.396788 2.11299 20.941547 -160.698234 -38.88686 171.640482 127.149117 -5.223412 171.382937 -4.10405 -18.69467 99.471801 -0.614759 -18.359262 -2.646855 -170.595932 3.022836 98.948692 -147.880076 9.210405 80.886308 -78.792091 41.333961 64.045496 -133.794817 1.991523 117.325402 -60.853207 58.652596 36.282462 23.591528 -9.050577 14.214385 -109.532437 -84.594577 -109.283492 -176.505185 -27.133427 179.979709 29.955231 45.185921 -22.576009 -45.333643 58.218306 54.842241 117.392109 60.102135 -120.509705 53.673487 15.344166 -50.018368 -0.600684 19.890723 102.404005 -168.109349 -21.781699 -141.408652 -4.225795 1.079041 4.045946 140.354922 -10.209245 -114.534633 160.501663 -20.775742 -116.752001 161.955059 1.074472 -108.50992 160.566646 -12.501036 -147.950461 174.117406 -23.869588 -144.124238 -5.452589 5.184788 -3.331989 157.724272 -40.736767 179.420299 -5.699759 31.285992 -2.685594 7.739806 -65.931713 -0.549572 -34.76652 1.358025 -14.487338 21.418676 -1.194895 -99.631354 -47.930691 -16.808544 41.141721 -158.376847 -26.327357 -37.672811 165.100003 73.831376 9.921856 -139.441263 6.429215 81.936099 64.2505 -0.460401 -102.692494 -73.681813 -18.82985 9.526635
2.9762 64.6576 1.1695 -18.642109 62.214652 -17.805161 11.020689 13.71741 -33.76888 1.419567 -5.908629 42.878995 10.406778 10.832986 37.690202 -19.601358 -14.566207 -22.349756 16.085111 -2.370372 -16.659676 9.08251 -0.293436 -3.693177 -6.711341 24.153276 6.466072 81.747307 28.404609 -14.783966 4.787666 -18.801168 108.454035 -6.36057 -12.158608 -7.842237 -173.954774 -9.424267 95.62958 123.987403 -57.095567 80.720368 37.684913 -60.566932 12.142348 -168.563073 -14.355924 120.508475 -168.779686 18.637292 147.713553 4.142471 -45.475934 4.178114 -87.689524 57.144389 84.272369 33.847389 6.376135 8.219435 -123.875098 -15.105548 -118.540603 -115.148554 -7.298521 -132.332107 4.052249 24.478367 -7.873429 53.174642 41.922419 -101.973438 -6.553235 66.620167 104.671943 -164.344012 -19.368431 -142.396421 8.706786 15.109901 4.439405 119.774848 15.08699 -92.859276 171.356376 -39.052025 -117.35975 144.382827 2.598397 -102.396249 167.833212 -63.749952 -151.993167 26.560506 47.681246 -44.16603 -2.147468 3.667934 4.302604 -14.325807 -17.813023 -12.946243 136.913362 -4.344965 133.496381 90.21596 -17.43126 109.742909 -92.03813 49.571673 -73.048908 77.981357 63.258417 12.187808 -28.575411 37.519409 112.623429 -34.672673 -45.582028 -92.381726 -2.441156 1.01244 0.362403 66.614998 -45.538313 -74.588583 -62.981084 -35.523704 131.460214 -66.71628 12.817898 -7.04552
3.2087999999999997 64.3422 1.6570999999999998 -19.991631 61.835122 -19.681176 7.527305 11.512867 128.617405 -2.720465 0.029345 -123.70531 -4.943577 16.721009 -63.882967 33.345163 -1.874616 88.823672 11.712403 -2.866624 -27.418973 4.393198 -0.360449 -9.376338 -5.707118 13.024495 6.875128 -88.174577 -28.357855 -154.074131 172.096838 9.387348 -70.549865 -11.462274 -1.026675 -9.470902 5.083139 -12.575716 -3.454805 -138.740615 -25.627863 109.390893 -168.04995 -16.850828 109.700215 1.714759 -8.307352 7.771129 -3.595439 13.99897 -12.906827 166.105414 -41.769208 124.580596 92.185113 -84.164067 89.41061 -167.916459 -58.968213 -157.156687 3.819369 15.225089 0.266069 4.153803 -15.819438 11.119693 1.735514 30.428956 -3.462526 121.365182 3.871965 -129.818098 0.690315 -9.813727 100.217363 -157.434743 -24.75 -140.215489 7.307574 16.856471 9.613399 128.104806 3.274933 -84.077254 171.849832 -59.564474 -127.472855 -55.531862 -15.172406 -13.592559 154.643684 37.025273 -143.696647 132.480861 -78.593605 158.343393 14.023277 -49.947528 30.665376 148.220955 -1.605946 -159.140379 146.106485 0.899663 130.937533 -18.329644 -3.831833 33.888356 131.998987 82.362223 33.800864 -172.669882 81.70688 -178.856478 -21.350896 -43.372972 -153.341491 -5.416404 -83.583834 -71.415998 155.490154 74.30501 20.105517 -135.14078 5.11367 107.967481 76.143154 -19.101111 144.91826 -40.596375 76.340148 124.815615
